# xmcd CD database file
#
# Track frame offsets:
#	150
#	10679
#	22175
#	33434
#	44648
#	56328
#	65891
#	76191
#	87258
#	98084
#	110756
#	121052
#
# Disc length: 1788 seconds
#
# Revision: 0
# Processed by: cddbd v1.5.1PL0 Copyright (c) Steve Scherf et al.
# Submitted via: CDex 1.50
#
DISCID=9806fa0c
DTITLE=Pasty Cline - Classic Masters
DYEAR=2003
DGENRE=Blues
TTITLE0=Lovesick Blues
TTITLE1=Walkin' After Midnight
TTITLE2=Just Out Of Reach
TTITLE3=Hungry For Love
TTITLE4=APoor Man's Roses
TTITLE5=I'm Moving Along
TTITLE6=Pick Me Up On Your Way Down
TTITLE7=Stop The World And Let Me Off
TTITLE8=I Cried All The Way To The Altar
TTITLE9=Just A Closer Walk With Tree
TTITLE10=Walking Dream
TTITLE11=Life's Railway To Heaven
EXTD=YEAR: 2003
EXTT0=
EXTT1=
EXTT2=
EXTT3=
EXTT4=
EXTT5=
EXTT6=
EXTT7=
EXTT8=
EXTT9=
EXTT10=
EXTT11=
PLAYORDER=
